<svg xmlns="http://www.w3.org/2000/svg" width="567" height="410" viewBox="0 0 567 410">
    <defs>
        <linearGradient id="a" x1="50%" x2="50%" y1="11.889%" y2="75.414%">
            <stop offset="0%" stop-color="#B7F7ED"/>
            <stop offset="100%" stop-color="#80ECD6"/>
        </linearGradient>
    </defs>
    <g fill="none" fill-rule="evenodd">
        <path fill="url(#a)" d="M9.71 362.702c-16.745 19.78 102.092 5.15 55.357 23.402-10 3.906-35.943 6.906-24.458 15.69 13.384 10.24 367.194 13.933 446.07-13.722 10.53-3.69 31.613-14.684 20.848-23-9.27-7.162-34.132-1.57-44.603-6.49 11.484-6.877 48.156-2.056 48.156-9.575.014-24.322-488.738-1.227-501.37 13.695"/>
        <path fill="#36C7AA" d="M434.777 186.782a1.947 1.947 0 0 0-1.944-1.946 1.948 1.948 0 0 0-1.947 1.946c0 1.073.873 1.946 1.947 1.946a1.947 1.947 0 0 0 1.944-1.946zm1.911 0a3.86 3.86 0 0 1-3.855 3.857 3.861 3.861 0 0 1-3.858-3.857 3.862 3.862 0 0 1 3.858-3.858 3.86 3.86 0 0 1 3.855 3.858zM501.532 45.548h-21.847a.956.956 0 1 0 0 1.911h21.847a.956.956 0 1 0 0-1.911M472.732 45.545h-4.268a.954.954 0 1 0 0 1.911h4.268a.956.956 0 1 0 0-1.911M474.199 53.16a.956.956 0 0 1-.955.956h-4.778a.955.955 0 1 1 0-1.912h4.778c.527 0 .955.428.955.956zm9.558 0a.956.956 0 0 1-.956.956h-4.779a.957.957 0 0 1 0-1.912h4.779c.528 0 .956.428.956.956zm7.511 0a.956.956 0 0 1-.956.956h-2.733a.956.956 0 0 1 0-1.912h2.733c.528 0 .956.428.956.956z"/>
        <path fill="#97F0DD" d="M147.081 109.44a.957.957 0 0 0-.956.956v2.217a.956.956 0 0 0 1.912 0v-2.217a.957.957 0 0 0-.956-.956M144.58 107.216h-2.218a.956.956 0 0 0 0 1.912h2.218a.956.956 0 0 0 0-1.912M147.081 102.624a.956.956 0 0 0-.956.955v2.216a.957.957 0 0 0 1.912 0v-2.216a.956.956 0 0 0-.956-.955M151.8 107.064h-2.218a.956.956 0 0 0 0 1.912h2.218a.956.956 0 1 0 0-1.912"/>
        <path fill="#36C7AA" d="M387.482 47.476a.956.956 0 0 0-.956.956v2.217a.956.956 0 0 0 1.911 0v-2.217a.955.955 0 0 0-.955-.956M384.98 45.252h-2.216a.956.956 0 1 0 0 1.911h2.216a.955.955 0 1 0 0-1.911M387.482 40.659a.956.956 0 0 0-.956.956v2.216a.956.956 0 0 0 1.911 0v-2.216a.955.955 0 0 0-.955-.956M392.201 45.1h-2.218a.956.956 0 0 0 0 1.911h2.218a.955.955 0 0 0 0-1.911"/>
        <path fill="#97F0DD" d="M298.376.004h-21.847a.955.955 0 0 0 0 1.911h21.847a.956.956 0 1 0 0-1.911M269.576 0h-4.268a.956.956 0 1 0 0 1.911h4.268a.956.956 0 1 0 0-1.911M271.043 7.616a.955.955 0 0 1-.955.955h-4.779a.955.955 0 1 1 0-1.911h4.779c.527 0 .955.428.955.956zm9.558 0a.955.955 0 0 1-.956.955h-4.779a.956.956 0 1 1 0-1.911h4.779c.528 0 .956.428.956.956zm7.511 0a.955.955 0 0 1-.956.955h-2.732a.954.954 0 1 1 0-1.911h2.732c.528 0 .956.428.956.956z"/>
        <path fill="#36C7AA" d="M533.208 100.134a3.374 3.374 0 1 0 6.749.001 3.374 3.374 0 0 0-6.749-.001M90.782 265.493h21.847a.956.956 0 1 0 0-1.911H90.782a.955.955 0 1 0 0 1.911M79.559 265.497h4.27a.956.956 0 0 0 0-1.911h-4.27a.955.955 0 0 0 0 1.911M503.588 281.036s1.305 9.309-9.57 9.094c0 0 9.341.096 9.096 8.831 0 0 .84-6.871 9.411-8.407 0 0-7.243 1.662-8.937-9.518M555.507 149.723s1.304 9.31-9.571 9.095c0 0 9.342.095 9.096 8.831 0 0 .841-6.872 9.412-8.407 0 0-7.243 1.661-8.937-9.519M210.601 23.68s1.306 9.309-9.569 9.094c0 0 9.341.096 9.096 8.832 0 0 .84-6.873 9.412-8.408 0 0-7.244 1.662-8.939-9.518M116.989 49.391s1.305 9.309-9.569 9.094c0 0 9.341.096 9.096 8.831 0 0 .839-6.872 9.411-8.407 0 0-7.243 1.662-8.938-9.518M173.729 9.6s.455 3.244-3.335 3.17c0 0 3.256.033 3.169 3.078 0 0 .293-2.395 3.281-2.931 0 0-2.525.579-3.115-3.317M344.02 121.47s.455 3.244-3.335 3.17c0 0 3.256.033 3.169 3.079 0 0 .293-2.396 3.281-2.932 0 0-2.525.579-3.115-3.317M28.497 176.933s.454 3.244-3.335 3.17c0 0 3.256.033 3.169 3.079 0 0 .293-2.396 3.28-2.931 0 0-2.524.578-3.114-3.318M311.643 264.414s.454 3.244-3.335 3.17c0 0 3.255.033 3.168 3.079 0 0 .293-2.397 3.281-2.932 0 0-2.525.579-3.114-3.317M161.586 203.728a3.47 3.47 0 0 0-3.466 3.465 3.47 3.47 0 0 0 3.466 3.465h21.213a3.47 3.47 0 0 0 3.466-3.465 3.47 3.47 0 0 0-3.466-3.465h-2.448l-.098-.614c-.368-2.318-2.568-3.939-5.021-3.353l-.536.129-.269-.481a6.17 6.17 0 0 0-5.382-3.166 6.168 6.168 0 0 0-6.161 6.161c0 .181.012.357.027.533l.067.791h-1.392zm21.213 8.386h-21.213a4.927 4.927 0 0 1-4.922-4.921 4.928 4.928 0 0 1 4.765-4.919c.069-4.141 3.46-7.487 7.616-7.487a7.627 7.627 0 0 1 6.379 3.458c2.859-.409 5.411 1.389 6.135 4.026h1.24a4.928 4.928 0 0 1 4.922 4.922 4.927 4.927 0 0 1-4.922 4.921zM540.025 24.202a3.47 3.47 0 0 0-3.465 3.466 3.468 3.468 0 0 0 3.465 3.464h21.213a3.47 3.47 0 0 0 3.466-3.464 3.47 3.47 0 0 0-3.466-3.466h-2.448l-.098-.613c-.368-2.318-2.569-3.937-5.02-3.353l-.536.128-.269-.481a6.172 6.172 0 0 0-5.383-3.166 6.168 6.168 0 0 0-6.161 6.161c0 .181.013.358.028.534l.068.79h-1.394zm21.213 8.387h-21.213a4.927 4.927 0 0 1-4.922-4.921 4.929 4.929 0 0 1 4.765-4.92c.07-4.14 3.46-7.487 7.616-7.487a7.625 7.625 0 0 1 6.379 3.458c2.858-.408 5.411 1.39 6.135 4.027h1.24a4.928 4.928 0 0 1 4.922 4.922 4.927 4.927 0 0 1-4.922 4.921z"/>
        <path fill="#97F0DD" d="M211.559 78.364a3.47 3.47 0 0 0-3.465 3.465 3.468 3.468 0 0 0 3.465 3.465h21.213a3.468 3.468 0 0 0 3.465-3.465 3.468 3.468 0 0 0-3.465-3.465h-2.448l-.098-.614c-.368-2.317-2.569-3.936-5.02-3.352l-.536.128-.269-.481a6.17 6.17 0 0 0-5.383-3.166 6.168 6.168 0 0 0-6.161 6.161c0 .18.012.358.028.533l.067.791h-1.393zm21.213 8.386h-21.213a4.927 4.927 0 0 1-4.921-4.921 4.927 4.927 0 0 1 4.764-4.919c.07-4.14 3.46-7.488 7.616-7.488a7.624 7.624 0 0 1 6.379 3.458c2.858-.407 5.412 1.391 6.135 4.028h1.24a4.927 4.927 0 0 1 4.922 4.921 4.927 4.927 0 0 1-4.922 4.921z"/>
        <path fill="#89FFE7" d="M299.211 358.691c-9.111 2.578-18.587-2.718-21.165-11.829l-13.603-48.076c-2.578-9.111 2.718-18.586 11.829-21.164 9.111-2.578 18.586 2.717 21.164 11.829l13.604 48.076c2.577 9.11-2.719 18.586-11.829 21.164"/>
        <path fill="#89FFE7" d="M279.796 358.286c-6.76-6.63-6.865-17.486-.236-24.245l34.986-35.671c6.63-6.76 17.484-6.866 24.245-.236 6.76 6.63 6.865 17.486.235 24.245l-34.985 35.671c-6.63 6.76-17.484 6.866-24.245.236"/>
        <path fill="#F2B183" d="M349.416 289.781c4.599 6.905 2.728 16.23-4.177 20.829-6.905 4.599-16.23 2.728-20.829-4.176-4.599-6.905-2.729-16.231 4.176-20.83 6.905-4.599 16.231-2.728 20.83 4.177"/>
        <path fill="#F2B183" d="M326.851 295.94a3.915 3.915 0 0 1-4.767-2.814l-1.332-5.17a3.914 3.914 0 0 1 7.582-1.953l1.331 5.169a3.915 3.915 0 0 1-2.814 4.768"/>
        <path fill="#F2B183" d="M341.919 278.142l-5.322 13.475a4.065 4.065 0 0 1-7.56-2.986l5.323-13.475a4.064 4.064 0 0 1 7.559 2.986M351.3 280.966l-6.428 12.984a4.064 4.064 0 0 1-7.284-3.606l6.428-12.984a4.064 4.064 0 0 1 7.284 3.606"/>
        <path fill="#F2B183" d="M358.277 288.196l-8.976 11.372a4.063 4.063 0 0 1-6.379-5.035l8.976-11.372a4.063 4.063 0 1 1 6.379 5.035M262.097 260.766l-5.829-.229a7.1 7.1 0 0 1-6.814-7.371l1.219-30.977 20.013.787-1.218 30.977a7.098 7.098 0 0 1-7.371 6.813"/>
        <path fill="#DF9F72" d="M270.686 221.887l-20.013-.787-.31 7.861c-.303 7.703 5.968 14.463 13.656 13.904a13.61 13.61 0 0 0 1.438-.18 14.037 14.037 0 0 0 4.476-1.637l.753-19.161"/>
        <path fill="#000" d="M280.735 191.229c5.17 9.399-.814 21.466-13.365 26.95-12.552 5.485-26.917 2.311-32.087-7.089-5.17-9.399.815-21.465 13.365-26.95 12.552-5.485 26.917-2.311 32.087 7.089"/>
        <path fill="#000" d="M294.609 194.065c3.431 7.378-3.235 16.112-14.887 19.509-11.654 3.396-23.88.169-27.311-7.21-3.43-7.378 3.236-16.112 14.889-19.508 11.653-3.397 23.88-.169 27.309 7.209"/>
        <path fill="#000" d="M275.499 175.647c6.903 4.306 6.09 15.264-1.815 24.474-7.907 9.209-19.912 13.183-26.815 8.877-6.902-4.307-6.09-15.264 1.816-24.474s19.911-13.185 26.814-8.877"/>
        <path fill="#F2B183" d="M282.28 216.924c1.97 11.039-3.807 21.307-12.904 22.93-9.095 1.623-18.066-6.012-20.036-17.052l-1.55-8.688c-1.971-11.039 3.806-21.307 12.9-22.93 9.097-1.623 18.07 6.012 20.039 17.052l1.551 8.688"/>
        <path fill="#000" d="M262.851 189.873c-5.031-4.554-13.787-2.351-19.557 4.92-5.77 7.27-6.369 16.854-1.338 21.408 5.03 4.553 13.786 2.351 19.556-4.919 5.77-7.27 6.37-16.856 1.339-21.409"/>
        <path fill="#FFD2D4" d="M281.656 210.188a6.184 6.184 0 0 0-4.224 1.658 6.19 6.19 0 0 0-1.999 4.334 6.182 6.182 0 0 0 1.652 4.478 6.198 6.198 0 0 0 4.333 2c1.679.028 3.256-.521 4.48-1.653a6.192 6.192 0 0 0 1.999-4.335 6.201 6.201 0 0 0-1.652-4.48 6.206 6.206 0 0 0-4.589-2.002zm.017 13.743c-.101 0-.202-.003-.305-.008a7.444 7.444 0 0 1-5.216-2.403 7.466 7.466 0 0 1-1.987-5.391 7.46 7.46 0 0 1 2.404-5.214c1.474-1.36 3.373-2.079 5.391-1.988a7.448 7.448 0 0 1 5.217 2.404 7.455 7.455 0 0 1 1.988 5.39 7.452 7.452 0 0 1-2.406 5.215 7.443 7.443 0 0 1-5.086 1.995zM265.531 208.79a6.947 6.947 0 0 0-4.745 1.859 6.956 6.956 0 0 0-2.244 4.868c-.151 3.858 2.864 7.118 6.723 7.272 1.849.089 3.653-.585 5.027-1.856a6.957 6.957 0 0 0 2.245-4.867 6.952 6.952 0 0 0-1.854-5.028 6.95 6.95 0 0 0-4.869-2.243c-.093-.005-.188-.005-.283-.005zm.019 15.429c-.115 0-.228-.002-.341-.008-4.644-.183-8.273-4.109-8.09-8.75a8.37 8.37 0 0 1 2.7-5.858c1.653-1.53 3.803-2.339 6.052-2.232a8.368 8.368 0 0 1 5.857 2.699 8.37 8.37 0 0 1 2.233 6.052 8.376 8.376 0 0 1-2.702 5.857 8.359 8.359 0 0 1-5.709 2.24z"/>
        <path fill="#FFD2D4" d="M272.514 217.107l3.099.122a.654.654 0 0 0 .052-1.306l-3.101-.121a.651.651 0 0 0-.677.627.652.652 0 0 0 .627.678"/>
        <path fill="#000" d="M266.958 232.751l-5.381-.005a8.732 8.732 0 0 1-5.866-2.258l-3.368-3.038a.651.651 0 0 1-.047-.921.651.651 0 0 1 .922-.049l3.368 3.038a7.428 7.428 0 0 0 4.991 1.922l5.381.005a.653.653 0 0 1 0 1.306"/>
        <path fill="#FFD2D4" d="M266.958 233.404h-.002l-2.181-.002a1.306 1.306 0 0 1 .001-2.613h.001l2.182.003a1.306 1.306 0 1 1-.001 2.612"/>
        <path fill="#63EACE" d="M260.364 221.108c-.237 6.037-5.324 10.739-11.361 10.502-6.037-.238-10.739-5.324-10.502-11.361.237-6.038 5.324-10.74 11.361-10.502 6.037.237 10.739 5.324 10.502 11.361"/>
        <path fill="#89FFE7" d="M256.364 220.951c-.202 5.153-4.186 9.181-8.898 8.996-4.712-.186-8.367-4.514-8.165-9.667.203-5.154 4.187-9.182 8.899-8.996 4.712.185 8.367 4.513 8.164 9.667"/>
        <path fill="#FFF" d="M249.166 220.668c-.082 2.087-1.462 3.729-3.081 3.665-1.62-.064-2.866-1.808-2.784-3.896.082-2.088 1.461-3.728 3.081-3.665 1.62.064 2.866 1.808 2.784 3.896"/>
        <path fill="#63EACE" d="M275.863 373.406l-52.33 1.474c-8.724-.343-15.517-7.693-15.175-16.418l3.306-87.573a10.882 10.882 0 0 1 7.572-9.942l39.013-12.422 31.185 14.946a10.883 10.883 0 0 1 6.17 10.242l-3.324 84.518c-.343 8.725-7.693 15.519-16.417 15.175"/>
        <path fill="#63EACE" d="M295.604 273.712c.18 9.132.075 18.253-.075 27.372-.12 9.119-.445 18.231-.77 27.342-.388 9.11-.781 18.219-1.375 27.32-.135 2.212-.246 4.704-1.081 6.968-.79 2.263-2.056 4.355-3.732 6.038-3.359 3.343-8.141 5.152-12.708 4.654 4.571-.099 8.948-2.147 11.767-5.522a14.833 14.833 0 0 0 3.102-5.676c.64-2.08.622-4.212.644-6.541.121-9.121.445-18.232.774-27.344.391-9.108.783-18.217 1.38-27.319.568-9.101 1.178-18.202 2.074-27.292M272.57 265.091l-28.243-1.821 1.083-16.788a3.786 3.786 0 0 1 4.023-3.534l20.685 1.334a3.786 3.786 0 0 1 3.535 4.022l-1.083 16.787"/>
        <path fill="#89FFE7" d="M188.431 347.737c-8.746-3.632-12.89-13.665-9.258-22.409l19.163-46.143c3.632-8.744 13.665-12.89 22.409-9.258 8.744 3.632 12.89 13.665 9.258 22.409l-19.164 46.143c-3.631 8.744-13.664 12.889-22.408 9.258"/>
        <path fill="#63EACE" d="M220.745 269.927c3.062.992 5.853 2.959 7.92 5.564a17.71 17.71 0 0 1 3.604 9.26c.453 3.356-.626 6.934-1.86 9.822l-3.619 8.903c-2.485 5.906-4.975 11.811-7.65 17.636l-4.023 8.737c-1.43 2.875-2.775 5.784-4.278 8.629.956-3.071 2.067-6.079 3.095-9.12l3.35-9.017c2.238-6.007 4.664-11.938 7.095-17.866l3.753-8.848c.64-1.512 1.303-2.848 1.622-4.306.354-1.449.563-2.949.518-4.457-.081-6.056-3.786-12.009-9.527-14.937"/>
        <path fill="#86294E" d="M260.262 311.096a2.032 2.032 0 0 0-2.155 1.894l-.254 3.935a2.034 2.034 0 0 0 1.894 2.156l4.819.31.516-7.984-4.82-.311zm-.767 11.895a5.954 5.954 0 0 1-5.552-6.318l.254-3.935a5.954 5.954 0 0 1 6.318-5.553l8.729.564-1.019 15.805-8.73-.563z"/>
        <path fill="#D15E79" d="M276.715 336.11l-7.551-.487a8.32 8.32 0 0 1-7.767-8.838l1.566-24.274c.175-2.708 24.33-1.15 24.155 1.558l-1.565 24.274a8.32 8.32 0 0 1-8.838 7.767"/>
        <path fill="#86294E" d="M284.712 304.726c-.063.976-4.548 1.48-10.017 1.127-5.469-.352-9.851-1.429-9.789-2.404.064-.975 4.548-1.48 10.017-1.127 5.47.353 9.851 1.43 9.789 2.404"/>
        <path fill="#89FFE7" d="M178.93 332.322c.149-9.468 7.945-17.022 17.413-16.872l49.958.788c9.467.149 17.02 7.946 16.871 17.413-.15 9.468-7.946 17.021-17.413 16.872l-49.957-.789c-9.468-.149-17.022-7.945-16.872-17.412"/>
        <path fill="#63EACE" d="M196.343 315.45c6.415-.438 12.825-.59 19.235-.697 6.41-.137 12.817-.07 19.225-.002l9.607.22c3.141.022 6.855.45 9.753 2.203a17.75 17.75 0 0 1 7.062 6.995c1.565 2.935 2.258 6.278 1.947 9.483-.404-6.433-4.39-12.199-9.911-14.683-1.367-.639-2.824-1.049-4.293-1.299-1.466-.288-2.954-.211-4.596-.225l-9.611-.083c-6.407-.134-12.812-.27-19.214-.609-6.404-.31-12.807-.663-19.204-1.303"/>
        <path fill="#F2B183" d="M280.414 328.512c.769 8.26-5.305 15.58-13.565 16.349-8.261.768-15.581-5.305-16.349-13.566-.769-8.26 5.305-15.58 13.565-16.348 8.261-.769 15.58 5.305 16.349 13.565"/>
        <path fill="#F2B183" d="M257.688 322.705a3.592 3.592 0 0 1-2.219-4.57l1.601-4.629a3.592 3.592 0 0 1 6.789 2.35l-1.601 4.629a3.593 3.593 0 0 1-4.57 2.22M286.452 324.67l-13.332 1.241a3.756 3.756 0 0 1-.695-7.479l13.331-1.24a3.756 3.756 0 0 1 .696 7.478M283.628 336.929l-13.361-.862a3.755 3.755 0 1 1 .483-7.495l13.361.862a3.754 3.754 0 1 1-.483 7.495"/>
        <path fill="#36C7AA" d="M419.497 291.377c-.401 0-.802-.154-1.107-.459a1.564 1.564 0 0 1 0-2.215l14.958-14.96a1.561 1.561 0 0 1 2.213 0 1.563 1.563 0 0 1 0 2.214l-14.958 14.961a1.557 1.557 0 0 1-1.106.459M408.846 282.197a1.567 1.567 0 0 1-1.568-1.567v-21.154a1.567 1.567 0 0 1 3.134 0v21.154c0 .866-.702 1.567-1.566 1.567M449.831 302.028h-21.157a1.567 1.567 0 1 1 0-3.133h21.157a1.566 1.566 0 1 1 0 3.133"/>
        <path fill="#D5D5D5" d="M261.93 367.833h129.439c3.61 0 4.723-2.926 4.723-6.538H255.39a6.538 6.538 0 0 0 6.54 6.538"/>
        <path fill="#D5D5D5" d="M254.422 361.295h45.882c0 3.612-3.324 6.538-7.425 6.538h-30.07l-8.583-.001c-4.229-.061-4.034-6.537.196-6.537"/>
        <path fill="#EFEFEF" d="M303.167 363.197h92.925a5.745 5.745 0 0 0 5.643-4.674l12.525-53.744c.674-3.54-2.041-6.819-5.645-6.819h-92.922a5.747 5.747 0 0 0-5.647 4.675l-12.524 53.743c-.671 3.54 2.042 6.819 5.645 6.819"/>
        <path fill="#D5D5D5" d="M310.046 302.635a5.725 5.725 0 0 1 2.292-3.59c1.737 1.254 2.732 3.432 2.292 5.734l-12.522 53.744a5.735 5.735 0 0 1-2.29 3.587c-1.736-1.253-2.732-3.435-2.296-5.732l12.524-53.743"/>
        <path fill="#FFF" d="M368.489 337.434H353.25a5.66 5.66 0 1 1 0-11.32h15.239a5.66 5.66 0 1 1 0 11.32"/>
        <path fill="#D5D5D5" d="M268.275 363.096h-4.572a1.633 1.633 0 1 1 0-3.265h4.572a1.633 1.633 0 1 1 0 3.265M277.201 363.096h-4.572a1.632 1.632 0 1 1 0-3.265h4.572a1.633 1.633 0 0 1 0 3.265M286.127 363.096h-4.571a1.632 1.632 0 1 1 0-3.265h4.571a1.633 1.633 0 1 1 0 3.265M295.053 363.096h-4.572a1.631 1.631 0 1 1 0-3.265h4.572a1.632 1.632 0 1 1 0 3.265"/>
        <path stroke="#1B2A67" stroke-linecap="round" stroke-width=".827" d="M132.895 343.384s-2.877-21.621-8.087-26.936"/>
        <path fill="#FFCACC" d="M125.649 303.584c1.393 4.607 1.109 8.769-.634 9.296-1.744.527-4.286-2.782-5.677-7.389l-.041-.139c-1.18-4.105 5.019-5.977 6.31-1.906l.042.138"/>
        <path fill="#FFCACC" d="M133.918 313.88c-4.608 1.393-8.771 1.109-9.297-.634-.526-1.743 2.782-4.285 7.39-5.677.046-.015.091-.027.138-.041 4.105-1.18 5.978 5.019 1.907 6.31l-.138.042"/>
        <path fill="#FFCACC" d="M118.154 318.643c4.609-1.392 7.917-3.933 7.39-5.677-.526-1.743-4.689-2.027-9.296-.634a2.78 2.78 0 0 0-.138.042c-4.072 1.291-2.199 7.49 1.907 6.31l.137-.041"/>
        <path fill="#FFCACC" d="M125.911 323.88c1.295-4.635.924-8.791-.83-9.281-1.754-.489-4.226 2.871-5.521 7.507l-.038.14c-1.092 4.129 5.144 5.871 6.349 1.773l.04-.139"/>
        <path fill="#FFCACC" d="M130.359 322.537c-3.645-3.143-5.637-6.809-4.448-8.188 1.189-1.38 5.108.051 8.754 3.194l.108.095c3.197 2.832-1.032 7.737-4.304 4.992l-.11-.093"/>
        <path fill="#D15E79" d="M127.186 313.484a2.254 2.254 0 1 1-4.316 1.304 2.254 2.254 0 0 1 4.316-1.304"/>
        <path fill="#2FB69B" d="M124.398 329.486c5.987 4.717 9.394 10.376 7.61 12.64-1.784 2.264-8.084.277-14.071-4.44-5.986-4.716-7.608-12.64-7.608-12.64s8.083-.277 14.069 4.44"/>
        <path fill="#36C7AA" d="M145.424 336.626c-6.319 5.933-13.261 8.806-15.506 6.417-2.245-2.391 1.058-9.139 7.377-15.074 6.319-5.934 15.506-6.417 15.506-6.417s-1.058 9.139-7.377 15.074"/>
        <path fill="#535353" d="M140.778 368.785h-20.676l-3.619-26.012h27.913l-3.618 26.012"/>
        <path fill="#656565" d="M145.478 349.443h-30.076a1.47 1.47 0 0 1-1.469-1.469v-6.733c0-.812.658-1.469 1.469-1.469h30.076c.812 0 1.469.657 1.469 1.469v6.733c0 .811-.657 1.469-1.469 1.469"/>
        <path fill="#36C7AA" d="M193.52 148.339l10.253 10.996 78.152-32.597-88.405 21.601"/>
        <path fill="#CFFFF5" d="M197.166 112.055l-7.719 11.645 5.219 11.412-11.708 1.991-10.346 22.713 111.821-33.837-87.267-13.924"/>
        <path fill="#36C7AA" d="M194.666 135.112l-5.219-11.412 60.568 2.832-55.349 8.58M90.316 168.766a1.566 1.566 0 0 1-1.56-1.467 126.1 126.1 0 0 1-.245-8.011v-.635c.005-1.362.03-2.727.074-4.095a1.565 1.565 0 0 1 1.566-1.515h.051a1.568 1.568 0 0 1 1.516 1.617c-.044 1.337-.07 2.672-.075 3.998v.63c0 2.689.083 5.317.241 7.812.055.865-.6 1.61-1.465 1.664-.033.002-.067.002-.103.002zm5.001 24.594a1.569 1.569 0 0 1-1.466-1.016 76.797 76.797 0 0 1-3.524-12.352 1.568 1.568 0 0 1 1.237-1.84 1.557 1.557 0 0 1 1.84 1.238 73.68 73.68 0 0 0 3.38 11.847 1.568 1.568 0 0 1-1.467 2.123zm12.414 21.803c-.459 0-.916-.202-1.226-.589a83.707 83.707 0 0 1-7.196-10.621 1.57 1.57 0 0 1 .587-2.138 1.578 1.578 0 0 1 2.139.587 80.337 80.337 0 0 0 6.924 10.218 1.571 1.571 0 0 1-.25 2.204 1.563 1.563 0 0 1-.978.339zm18.472 16.973c-.299 0-.6-.084-.868-.262a83.208 83.208 0 0 1-10.085-7.922 1.568 1.568 0 0 1 2.123-2.306 80.151 80.151 0 0 0 9.702 7.62 1.568 1.568 0 1 1-.872 2.87zm22.7 10.693c-.15 0-.305-.023-.459-.072a90.718 90.718 0 0 1-11.947-4.591 1.567 1.567 0 1 1 1.332-2.838 87.976 87.976 0 0 0 11.534 4.434 1.565 1.565 0 0 1 1.038 1.957 1.571 1.571 0 0 1-1.498 1.11zm24.735 4.523c-.046 0-.092 0-.138-.005-4.316-.37-8.565-.924-12.623-1.645a1.569 1.569 0 0 1-1.269-1.82c.154-.849.97-1.392 1.82-1.267 3.965.706 8.118 1.247 12.342 1.609a1.567 1.567 0 0 1-.132 3.128zm15.141.617c-.859 0-1.721-.005-2.581-.014a1.567 1.567 0 0 1-1.55-1.585c.011-.865.759-1.651 1.585-1.548 4.06.046 8.088-.019 12.509-.204h.067a1.567 1.567 0 0 1 .066 3.133c-3.541.147-6.845.218-10.096.218zM27.684 57.779a1.57 1.57 0 0 1-1.503-1.125 1.565 1.565 0 0 1 1.059-1.946 59.088 59.088 0 0 1 12.322-2.228l.472-.015c.774.038 1.582.671 1.598 1.536a1.566 1.566 0 0 1-1.536 1.597l-.342.012a55.869 55.869 0 0 0-11.626 2.103 1.609 1.609 0 0 1-.444.066zm36.314 3.996c-.293 0-.592-.082-.857-.256-3.322-2.179-7.019-3.778-10.986-4.755a1.571 1.571 0 0 1-1.148-1.898 1.578 1.578 0 0 1 1.898-1.149c4.312 1.064 8.335 2.807 11.955 5.18a1.568 1.568 0 0 1-.862 2.878zM6.784 71.094a1.568 1.568 0 0 1-1.248-2.515c2.516-3.304 5.817-6.223 9.815-8.672a1.572 1.572 0 0 1 2.156.518 1.57 1.57 0 0 1-.518 2.156c-3.667 2.245-6.68 4.903-8.958 7.896a1.562 1.562 0 0 1-1.247.617zm73.067 9.825a1.57 1.57 0 0 1-1.413-.891c-1.873-3.908-4.036-7.398-6.431-10.373a1.568 1.568 0 0 1 2.443-1.964c2.544 3.161 4.838 6.857 6.815 10.98a1.568 1.568 0 0 1-1.414 2.248zM2.894 94.976c-.69 0-1.32-.456-1.511-1.15a63.246 63.246 0 0 1-.546-2.131C.28 89.338 0 87.001 0 84.749c0-1.353.099-2.705.301-4.021a1.568 1.568 0 0 1 1.784-1.314 1.563 1.563 0 0 1 1.313 1.783 23.9 23.9 0 0 0-.265 3.552c0 2.01.255 4.105.756 6.224.16.679.331 1.353.514 2.016a1.564 1.564 0 0 1-1.509 1.987zm84.223 10.014c-.75 0-1.41-.538-1.543-1.301-.727-4.263-1.658-8.337-2.768-12.113a1.564 1.564 0 0 1 1.061-1.945 1.554 1.554 0 0 1 1.944 1.062c1.146 3.891 2.105 8.085 2.855 12.465a1.572 1.572 0 0 1-1.28 1.812 1.64 1.64 0 0 1-.269.02zm-72.205 11.843c-.424 0-.85-.171-1.158-.51a54.544 54.544 0 0 1-7.534-10.509 1.572 1.572 0 0 1 .62-2.13 1.58 1.58 0 0 1 2.131.62 51.289 51.289 0 0 0 7.099 9.906 1.568 1.568 0 0 1-1.158 2.623zm74.224 13.292a1.567 1.567 0 0 1-1.567-1.566v-.557c0-3.952-.158-7.967-.471-11.937a1.57 1.57 0 0 1 1.441-1.686c.831-.077 1.614.576 1.686 1.441.316 4.049.477 8.149.477 12.182v.557c0 .864-.701 1.566-1.566 1.566zm-53.959 1.4c-.23 0-.465-.05-.684-.158-4.014-1.946-7.735-4.14-11.064-6.521a1.567 1.567 0 1 1 1.821-2.551c3.188 2.278 6.758 4.383 10.61 6.25a1.57 1.57 0 0 1-.683 2.98zm23.808 8.052c-.115 0-.23-.012-.344-.038a133.813 133.813 0 0 1-8.78-2.278 128.974 128.974 0 0 1-3.508-1.105 1.566 1.566 0 0 1-.995-1.98 1.56 1.56 0 0 1 1.981-.995c1.12.37 2.258.73 3.416 1.074a130.1 130.1 0 0 0 8.569 2.223 1.568 1.568 0 0 1-.339 3.099zm87.755 1.608a1.566 1.566 0 0 1-.179-3.123 505.321 505.321 0 0 0 12.451-1.618 1.557 1.557 0 0 1 1.773 1.33 1.566 1.566 0 0 1-1.329 1.772 488.176 488.176 0 0 1-12.532 1.628 1.42 1.42 0 0 1-.184.011zm-62.843 2.002c-.04 0-.081 0-.125-.002-4.362-.34-8.607-.804-12.618-1.378a1.566 1.566 0 0 1-1.329-1.773c.122-.855.934-1.434 1.774-1.329 3.944.564 8.123 1.02 12.419 1.352a1.567 1.567 0 1 1-.121 3.13zm37.751.199a1.565 1.565 0 0 1-.084-3.13c4.054-.23 8.264-.533 12.514-.908.84-.09 1.625.561 1.699 1.423a1.567 1.567 0 0 1-1.424 1.699c-4.283.378-8.525.687-12.615.914-.028.002-.058.002-.09.002zm-18.151.526c-2.394 0-4.751-.028-7.064-.087a1.566 1.566 0 1 1 .04-3.133h.041c4.046.102 8.217.112 12.521.033.975-.051 1.582.672 1.598 1.536a1.564 1.564 0 0 1-1.536 1.597c-1.891.036-3.758.054-5.6.054z"/>
        <path fill="#C6FFF4" d="M404.832 68.451h83.784c10.473 0 18.963 8.491 18.963 18.964v43.214c0 10.473-8.49 18.963-18.963 18.963h-54.788l-19.706 17.388v-17.388h-9.29c-10.474 0-18.964-8.49-18.964-18.963V87.415c0-10.473 8.49-18.964 18.964-18.964"/>
        <path fill="#36C7AA" d="M417.019 95.195h59.409a2.377 2.377 0 0 0 0-4.754h-59.409a2.378 2.378 0 0 0 0 4.754M417.019 111.037h59.409a2.377 2.377 0 0 0 0-4.755h-59.409a2.378 2.378 0 0 0 0 4.755M467.715 126.879h8.713a2.377 2.377 0 0 0 0-4.755h-8.713a2.377 2.377 0 1 0 0 4.755M447.912 126.879h8.713a2.377 2.377 0 0 0 0-4.755h-8.713a2.378 2.378 0 0 0 0 4.755M417.019 126.879h19.804a2.377 2.377 0 0 0 0-4.755h-19.804a2.378 2.378 0 0 0 0 4.755"/>
        <path fill="#CCF0DC" d="M394.234 154.75H330.1c-6.308 0-11.42 5.113-11.42 11.42v36.983c0 6.025 4.668 10.949 10.584 11.378l-13.225 21.671 34.854-21.628h43.341c6.307 0 11.42-5.113 11.42-11.421V166.17c0-6.307-5.113-11.42-11.42-11.42"/>
        <path fill="#36C7AA" d="M369.76 175.688a7.594 7.594 0 1 1-15.187-.001 7.594 7.594 0 0 1 15.187.001"/>
        <path stroke="#36C7AA" stroke-linecap="round" stroke-linejoin="round" stroke-width="2.761" d="M369.76 175.688a7.594 7.594 0 1 1-15.187-.001 7.594 7.594 0 0 1 15.187.001z"/>
        <path fill="#36C7AA" d="M380.114 201.228H344.22c0-6.353 5.15-11.504 11.505-11.504h12.884c6.354 0 11.505 5.151 11.505 11.504"/>
        <path stroke="#36C7AA" stroke-linecap="round" stroke-linejoin="round" stroke-width="2.761" d="M380.114 201.228H344.22c0-6.353 5.15-11.504 11.505-11.504h12.884c6.354 0 11.505 5.151 11.505 11.504z"/>
        <path fill="#36C7AA" d="M304.05 38.711c-.581 0-1.14-.327-1.41-.888a1.563 1.563 0 0 1 .729-2.092 30.735 30.735 0 0 1 10.547-2.931 1.587 1.587 0 0 1 1.707 1.416 1.57 1.57 0 0 1-1.416 1.706 27.695 27.695 0 0 0-9.476 2.631 1.546 1.546 0 0 1-.681.158zm29.768 2.498c-.314 0-.63-.092-.906-.288a27.584 27.584 0 0 0-8.898-4.185 1.571 1.571 0 0 1-1.113-1.918 1.57 1.57 0 0 1 1.919-1.112 30.689 30.689 0 0 1 9.908 4.658 1.568 1.568 0 0 1-.91 2.845zM289.86 53.447a1.568 1.568 0 0 1-1.436-2.196 30.731 30.731 0 0 1 6.087-9.098 1.559 1.559 0 0 1 2.215-.041c.625.6.642 1.592.041 2.214a27.7 27.7 0 0 0-5.47 8.18 1.568 1.568 0 0 1-1.437.941zm55.5 4.664a1.567 1.567 0 0 1-1.52-1.191 27.622 27.622 0 0 0-4.027-8.976 1.568 1.568 0 0 1 .409-2.179 1.561 1.561 0 0 1 2.178.408 30.72 30.72 0 0 1 4.481 9.991 1.566 1.566 0 0 1-1.521 1.947zm-56.643 15.767c-.671 0-1.29-.434-1.497-1.108a31.006 31.006 0 0 1-1.322-10.868c.048-.865.834-1.51 1.654-1.475a1.566 1.566 0 0 1 1.474 1.654 28.007 28.007 0 0 0 1.189 9.766 1.567 1.567 0 0 1-1.498 2.031zm55.676 1.556a1.568 1.568 0 0 1-1.469-2.115 27.754 27.754 0 0 0 1.732-9.685 1.567 1.567 0 0 1 3.133 0c0 3.707-.648 7.335-1.927 10.777a1.571 1.571 0 0 1-1.469 1.023zm-43.22 14.667a1.55 1.55 0 0 1-.832-.24 31.054 31.054 0 0 1-8.093-7.368 1.568 1.568 0 0 1 2.485-1.913 27.986 27.986 0 0 0 7.276 6.628 1.565 1.565 0 0 1-.836 2.893zm29.875.842a1.572 1.572 0 0 1-1.375-.809 1.572 1.572 0 0 1 .612-2.133 27.845 27.845 0 0 0 7.636-6.209 1.567 1.567 0 0 1 2.372 2.046 31.05 31.05 0 0 1-8.487 6.908 1.579 1.579 0 0 1-.758.197zm-14.229 3.661a31.4 31.4 0 0 1-6.319-.643 1.569 1.569 0 0 1-1.22-1.852c.176-.853 1.024-1.373 1.853-1.22 3.221.666 6.615.756 9.84.273a1.578 1.578 0 0 1 1.783 1.319 1.57 1.57 0 0 1-1.32 1.784 31.616 31.616 0 0 1-4.617.339z"/>
        <path fill="#63EACE" d="M316.819 48.747c-11.347 0-20.547 6.081-20.547 13.584v.038c.009 1.958 1.554 3.301 2.998 2.684l5.394-2.301c1.298-.555 1.928-2.444 1.345-4.036l-.663-1.809s9.911 1.766 22.872 0l-.67 2.322c-.423 1.469.126 3.108 1.248 3.72l5.334 2.911c1.297.709 2.811-.242 3.109-2.013a9.105 9.105 0 0 0 .127-1.516c0-7.503-9.199-13.584-20.547-13.584"/>
        <path fill="#89FFE7" d="M331.051 78.523h-28.478l4.22-13.222a5.98 5.98 0 0 1 5.696-4.161h8.647a5.981 5.981 0 0 1 5.696 4.161l4.219 13.222"/>
        <path fill="#36C7AA" d="M487.598 199.753a1.567 1.567 0 0 1-.682-2.979 30.713 30.713 0 0 1 10.55-2.929 1.569 1.569 0 0 1 .29 3.122 27.637 27.637 0 0 0-9.478 2.628 1.532 1.532 0 0 1-.68.158zm29.767 2.508c-.313 0-.63-.091-.906-.288a27.492 27.492 0 0 0-8.899-4.186 1.572 1.572 0 0 1-1.112-1.919 1.58 1.58 0 0 1 1.919-1.113 30.79 30.79 0 0 1 9.909 4.662 1.569 1.569 0 0 1-.911 2.844zm-43.961 12.231a1.57 1.57 0 0 1-1.436-2.197 30.897 30.897 0 0 1 6.09-9.097 1.555 1.555 0 0 1 2.214-.041c.625.599.643 1.592.041 2.215a27.808 27.808 0 0 0-5.472 8.178 1.57 1.57 0 0 1-1.437.942zm55.503 4.667a1.567 1.567 0 0 1-1.52-1.192 27.687 27.687 0 0 0-4.027-8.973 1.569 1.569 0 0 1 2.587-1.771 30.705 30.705 0 0 1 4.481 9.988 1.567 1.567 0 0 1-1.144 1.899 1.507 1.507 0 0 1-.377.049zm-56.65 15.761a1.569 1.569 0 0 1-1.498-1.107 30.972 30.972 0 0 1-1.319-10.863c.048-.865.903-1.524 1.651-1.478a1.566 1.566 0 0 1 1.476 1.651 27.792 27.792 0 0 0 1.187 9.766 1.568 1.568 0 0 1-1.497 2.031zm55.677 1.561a1.566 1.566 0 0 1-1.468-2.114 27.761 27.761 0 0 0 1.731-9.685 1.567 1.567 0 0 1 3.134 0c0 3.707-.648 7.334-1.927 10.777a1.568 1.568 0 0 1-1.47 1.022zm-43.217 14.665c-.283 0-.574-.077-.832-.24a31.115 31.115 0 0 1-8.09-7.368 1.569 1.569 0 0 1 .286-2.2 1.573 1.573 0 0 1 2.199.287 27.932 27.932 0 0 0 7.274 6.628 1.565 1.565 0 0 1-.837 2.893zm29.873.845a1.568 1.568 0 0 1-1.373-.81 1.564 1.564 0 0 1 .609-2.13 27.928 27.928 0 0 0 7.637-6.212 1.566 1.566 0 0 1 2.372 2.046 31.034 31.034 0 0 1-8.488 6.907 1.564 1.564 0 0 1-.757.199zm-14.227 3.658c-2.133 0-4.26-.217-6.327-.646a1.57 1.57 0 0 1-1.217-1.854 1.59 1.59 0 0 1 1.856-1.218c3.212.672 6.625.758 9.837.274a1.576 1.576 0 0 1 1.783 1.319 1.569 1.569 0 0 1-1.319 1.783 31.738 31.738 0 0 1-4.613.342zM481.891 239.774h36.451v-20.67h-36.451z"/>
        <path fill="#36C7AA" d="M513.344 217.465v-2.529a3.372 3.372 0 1 1 6.743 0v4.193h-6.743"/>
        <path fill="#FFF" stroke="#36C7AA" stroke-linecap="round" stroke-linejoin="round" stroke-width=".3" d="M513.41 236.372h-24.851v-21.485a3.371 3.371 0 0 1 3.371-3.371h24.571l-.683.142a3.372 3.372 0 0 0-2.408 3.229v21.485z"/>
        <path fill="#36C7AA" d="M490.104 220.671h5.51v-5.657h-5.51z"/>
        <path stroke="#259E86" stroke-linecap="round" stroke-linejoin="round" stroke-width=".658" d="M497.303 214.982h14.008m-14.008 1.905h14.008m-14.008 1.906h14.008m-13.877 1.905h14.009m-21.339 1.878h21.207m-21.207 1.905h21.207m-21.207 1.863h21.207m-21.207 1.906h10.307"/>
        <path fill="#63EACE" d="M509.387 239.774h-27.496v-20.67l27.496 20.67"/>
        <path fill="#63EACE" d="M490.846 239.774h27.496v-20.67l-27.496 20.67"/>
        <path fill="#36C7AA" d="M518.342 239.774h-36.451l16.371-8.743a3.252 3.252 0 0 1 3.709 0l16.371 8.743"/>
    </g>
</svg>
